0
SECTION
2
HEADER
9
$INSUNITS
70
4
0
ENDSEC
0
SECTION
2
TABLES
0
TABLE
2
LTYPE
0
LTYPE
72
65
70
64
2
CONTINUOUS
3
______
73
0
40
0
0
ENDTAB
0
TABLE
2
LAYER
0
ENDTAB
0
ENDSEC
0
SECTION
2
ENTITIES
0
LINE
8
0
10
138.6
20
-160.0360241
11
138.6
21
-83.6
0
LINE
8
0
10
140.6
20
-81.6
11
174.6
21
-81.6
0
LINE
8
0
10
176.6
20
-79.6
11
176.6
21
-73.6
0
LINE
8
0
10
178.6
20
-71.6
11
193.6
21
-71.6
0
LINE
8
0
10
195.6
20
-69.6
11
195.6
21
-68.6
0
LINE
8
0
10
197.6
20
-66.6
11
216.4
21
-66.6
0
LINE
8
0
10
218.4
20
-68.6
11
218.4
21
-69.6
0
LINE
8
0
10
220.4
20
-71.6
11
235.4
21
-71.6
0
LINE
8
0
10
237.4
20
-73.6
11
237.4
21
-74.6
0
LINE
8
0
10
239.4
20
-76.6
11
279.1
21
-76.6
0
LINE
8
0
10
281.1
20
-78.6
11
281.1
21
-144.6065389
0
LINE
8
0
10
281.2490431
20
-145.3641396
11
296.6031358
21
-182.8769947
0
LINE
8
0
10
296.2842678
20
-184.9201706
11
283.3881153
21
-200.2892067
0
LINE
8
0
10
281.0169602
20
-200.8191115
11
239.3992441
21
-181.5845199
0
LINE
8
0
10
238.5601779
20
-181.4
11
189.9781384
21
-181.4
0
LINE
8
0
10
189.2479634
20
-181.2619464
11
139.869825
21
-161.8979706
0
ARC
8
0
10
140.6
20
-83.6
40
2
50
90
51
180
0
ARC
8
0
10
174.6
20
-79.6
40
2
50
270
51
0
0
ARC
8
0
10
178.6
20
-73.6
40
2
50
90
51
180
0
ARC
8
0
10
193.6
20
-69.6
40
2
50
270
51
0
0
ARC
8
0
10
197.6
20
-68.6
40
2
50
90
51
180
0
ARC
8
0
10
216.4
20
-68.6
40
2
50
0
51
90
0
ARC
8
0
10
220.4
20
-69.6
40
2
50
180
51
270
0
ARC
8
0
10
235.4
20
-73.6
40
2
50
0
51
90
0
ARC
8
0
10
239.4
20
-74.6
40
2
50
180
51
270
0
ARC
8
0
10
279.1
20
-78.6
40
2
50
0
51
90
0
ARC
8
0
10
283.1
20
-144.6065389
40
2
50
180
51
202.259391
0
ARC
8
0
10
294.7521789
20
-183.6345954
40
2
50
319.9999988
51
22.259391
0
ARC
8
0
10
281.8560264
20
-199.0036314
40
2
50
245.1948854
51
319.9999988
0
ARC
8
0
10
238.5601779
20
-183.4
40
2
50
65.1948854
51
90
0
ARC
8
0
10
189.9781384
20
-179.4
40
2
50
248.5870321
51
270
0
ARC
8
0
10
140.6
20
-160.0360241
40
2
50
180
51
248.5870321
0
LINE
8
0
10
140.75
20
-159.25
11
159.25
21
-159.25
0
LINE
8
0
10
159.25
20
-159.25
11
159.25
21
-140.75
0
LINE
8
0
10
159.25
20
-140.75
11
140.75
21
-140.75
0
LINE
8
0
10
140.75
20
-140.75
11
140.75
21
-159.25
0
LINE
8
0
10
140.75
20
-140.25
11
159.25
21
-140.25
0
LINE
8
0
10
159.25
20
-140.25
11
159.25
21
-121.75
0
LINE
8
0
10
159.25
20
-121.75
11
140.75
21
-121.75
0
LINE
8
0
10
140.75
20
-121.75
11
140.75
21
-140.25
0
LINE
8
0
10
140.75
20
-121.25
11
159.25
21
-121.25
0
LINE
8
0
10
159.25
20
-121.25
11
159.25
21
-102.75
0
LINE
8
0
10
159.25
20
-102.75
11
140.75
21
-102.75
0
LINE
8
0
10
140.75
20
-102.75
11
140.75
21
-121.25
0
LINE
8
0
10
140.75
20
-102.25
11
159.25
21
-102.25
0
LINE
8
0
10
159.25
20
-102.25
11
159.25
21
-83.75
0
LINE
8
0
10
159.25
20
-83.75
11
140.75
21
-83.75
0
LINE
8
0
10
140.75
20
-83.75
11
140.75
21
-102.25
0
LINE
8
0
10
159.75
20
-159.25
11
178.25
21
-159.25
0
LINE
8
0
10
178.25
20
-159.25
11
178.25
21
-140.75
0
LINE
8
0
10
178.25
20
-140.75
11
159.75
21
-140.75
0
LINE
8
0
10
159.75
20
-140.75
11
159.75
21
-159.25
0
LINE
8
0
10
159.75
20
-140.25
11
178.25
21
-140.25
0
LINE
8
0
10
178.25
20
-140.25
11
178.25
21
-121.75
0
LINE
8
0
10
178.25
20
-121.75
11
159.75
21
-121.75
0
LINE
8
0
10
159.75
20
-121.75
11
159.75
21
-140.25
0
LINE
8
0
10
159.75
20
-121.25
11
178.25
21
-121.25
0
LINE
8
0
10
178.25
20
-121.25
11
178.25
21
-102.75
0
LINE
8
0
10
178.25
20
-102.75
11
159.75
21
-102.75
0
LINE
8
0
10
159.75
20
-102.75
11
159.75
21
-121.25
0
LINE
8
0
10
159.75
20
-102.25
11
178.25
21
-102.25
0
LINE
8
0
10
178.25
20
-102.25
11
178.25
21
-83.75
0
LINE
8
0
10
178.25
20
-83.75
11
159.75
21
-83.75
0
LINE
8
0
10
159.75
20
-83.75
11
159.75
21
-102.25
0
LINE
8
0
10
178.75
20
-149.25
11
197.25
21
-149.25
0
LINE
8
0
10
197.25
20
-149.25
11
197.25
21
-130.75
0
LINE
8
0
10
197.25
20
-130.75
11
178.75
21
-130.75
0
LINE
8
0
10
178.75
20
-130.75
11
178.75
21
-149.25
0
LINE
8
0
10
178.75
20
-130.25
11
197.25
21
-130.25
0
LINE
8
0
10
197.25
20
-130.25
11
197.25
21
-111.75
0
LINE
8
0
10
197.25
20
-111.75
11
178.75
21
-111.75
0
LINE
8
0
10
178.75
20
-111.75
11
178.75
21
-130.25
0
LINE
8
0
10
178.75
20
-111.25
11
197.25
21
-111.25
0
LINE
8
0
10
197.25
20
-111.25
11
197.25
21
-92.75
0
LINE
8
0
10
197.25
20
-92.75
11
178.75
21
-92.75
0
LINE
8
0
10
178.75
20
-92.75
11
178.75
21
-111.25
0
LINE
8
0
10
178.75
20
-92.25
11
197.25
21
-92.25
0
LINE
8
0
10
197.25
20
-92.25
11
197.25
21
-73.75
0
LINE
8
0
10
197.25
20
-73.75
11
178.75
21
-73.75
0
LINE
8
0
10
178.75
20
-73.75
11
178.75
21
-92.25
0
LINE
8
0
10
197.75
20
-144.25
11
216.25
21
-144.25
0
LINE
8
0
10
216.25
20
-144.25
11
216.25
21
-125.75
0
LINE
8
0
10
216.25
20
-125.75
11
197.75
21
-125.75
0
LINE
8
0
10
197.75
20
-125.75
11
197.75
21
-144.25
0
LINE
8
0
10
197.75
20
-125.25
11
216.25
21
-125.25
0
LINE
8
0
10
216.25
20
-125.25
11
216.25
21
-106.75
0
LINE
8
0
10
216.25
20
-106.75
11
197.75
21
-106.75
0
LINE
8
0
10
197.75
20
-106.75
11
197.75
21
-125.25
0
LINE
8
0
10
197.75
20
-106.25
11
216.25
21
-106.25
0
LINE
8
0
10
216.25
20
-106.25
11
216.25
21
-87.75
0
LINE
8
0
10
216.25
20
-87.75
11
197.75
21
-87.75
0
LINE
8
0
10
197.75
20
-87.75
11
197.75
21
-106.25
0
LINE
8
0
10
197.75
20
-87.25
11
216.25
21
-87.25
0
LINE
8
0
10
216.25
20
-87.25
11
216.25
21
-68.75
0
LINE
8
0
10
216.25
20
-68.75
11
197.75
21
-68.75
0
LINE
8
0
10
197.75
20
-68.75
11
197.75
21
-87.25
0
LINE
8
0
10
216.75
20
-149.25
11
235.25
21
-149.25
0
LINE
8
0
10
235.25
20
-149.25
11
235.25
21
-130.75
0
LINE
8
0
10
235.25
20
-130.75
11
216.75
21
-130.75
0
LINE
8
0
10
216.75
20
-130.75
11
216.75
21
-149.25
0
LINE
8
0
10
216.75
20
-130.25
11
235.25
21
-130.25
0
LINE
8
0
10
235.25
20
-130.25
11
235.25
21
-111.75
0
LINE
8
0
10
235.25
20
-111.75
11
216.75
21
-111.75
0
LINE
8
0
10
216.75
20
-111.75
11
216.75
21
-130.25
0
LINE
8
0
10
216.75
20
-111.25
11
235.25
21
-111.25
0
LINE
8
0
10
235.25
20
-111.25
11
235.25
21
-92.75
0
LINE
8
0
10
235.25
20
-92.75
11
216.75
21
-92.75
0
LINE
8
0
10
216.75
20
-92.75
11
216.75
21
-111.25
0
LINE
8
0
10
216.75
20
-92.25
11
235.25
21
-92.25
0
LINE
8
0
10
235.25
20
-92.25
11
235.25
21
-73.75
0
LINE
8
0
10
235.25
20
-73.75
11
216.75
21
-73.75
0
LINE
8
0
10
216.75
20
-73.75
11
216.75
21
-92.25
0
LINE
8
0
10
235.75
20
-154.25
11
254.25
21
-154.25
0
LINE
8
0
10
254.25
20
-154.25
11
254.25
21
-135.75
0
LINE
8
0
10
254.25
20
-135.75
11
235.75
21
-135.75
0
LINE
8
0
10
235.75
20
-135.75
11
235.75
21
-154.25
0
LINE
8
0
10
235.75
20
-135.25
11
254.25
21
-135.25
0
LINE
8
0
10
254.25
20
-135.25
11
254.25
21
-116.75
0
LINE
8
0
10
254.25
20
-116.75
11
235.75
21
-116.75
0
LINE
8
0
10
235.75
20
-116.75
11
235.75
21
-135.25
0
LINE
8
0
10
235.75
20
-116.25
11
254.25
21
-116.25
0
LINE
8
0
10
254.25
20
-116.25
11
254.25
21
-97.75
0
LINE
8
0
10
254.25
20
-97.75
11
235.75
21
-97.75
0
LINE
8
0
10
235.75
20
-97.75
11
235.75
21
-116.25
0
LINE
8
0
10
235.75
20
-97.25
11
254.25
21
-97.25
0
LINE
8
0
10
254.25
20
-97.25
11
254.25
21
-78.75
0
LINE
8
0
10
254.25
20
-78.75
11
235.75
21
-78.75
0
LINE
8
0
10
235.75
20
-78.75
11
235.75
21
-97.25
0
LINE
8
0
10
191.75
20
-179.25
11
210.25
21
-179.25
0
LINE
8
0
10
210.25
20
-179.25
11
210.25
21
-160.75
0
LINE
8
0
10
210.25
20
-160.75
11
191.75
21
-160.75
0
LINE
8
0
10
191.75
20
-160.75
11
191.75
21
-179.25
0
LINE
8
0
10
210.75
20
-179.25
11
229.25
21
-179.25
0
LINE
8
0
10
229.25
20
-179.25
11
229.25
21
-160.75
0
LINE
8
0
10
229.25
20
-160.75
11
210.75
21
-160.75
0
LINE
8
0
10
210.75
20
-160.75
11
210.75
21
-179.25
0
LINE
8
0
10
229.75
20
-179.25
11
248.25
21
-179.25
0
LINE
8
0
10
248.25
20
-179.25
11
248.25
21
-160.75
0
LINE
8
0
10
248.25
20
-160.75
11
229.75
21
-160.75
0
LINE
8
0
10
229.75
20
-160.75
11
229.75
21
-179.25
0
LINE
8
0
10
249.6441569
20
-179.5284704
11
267.0284704
21
-185.8558431
0
LINE
8
0
10
267.0284704
20
-185.8558431
11
273.3558431
21
-168.4715296
0
LINE
8
0
10
273.3558431
20
-168.4715296
11
255.9715296
21
-162.1441569
0
LINE
8
0
10
255.9715296
20
-162.1441569
11
249.6441569
21
-179.5284704
0
LINE
8
0
10
256.1441569
20
-161.5284704
11
273.5284704
21
-167.8558431
0
LINE
8
0
10
273.5284704
20
-167.8558431
11
279.8558431
21
-150.4715296
0
LINE
8
0
10
279.8558431
20
-150.4715296
11
262.4715296
21
-144.1441569
0
LINE
8
0
10
262.4715296
20
-144.1441569
11
256.1441569
21
-161.5284704
0
LINE
8
0
10
267.9683035
20
-186.5401257
11
282.1401257
21
-198.4316965
0
LINE
8
0
10
282.1401257
20
-198.4316965
11
294.0316965
21
-184.2598743
0
LINE
8
0
10
294.0316965
20
-184.2598743
11
279.8598743
21
-172.3683035
0
LINE
8
0
10
279.8598743
20
-172.3683035
11
267.9683035
21
-186.5401257
0
ENDSEC
0
EOF